<svg width="50" height="50" viewBox="0 0 50 50" fill="none" xmlns="http://www.w3.org/2000/svg">
<path d="M33.3333 33.3333C34.1069 33.3333 34.8487 33.6406 35.3957 34.1876C35.9427 34.7346 36.25 35.4764 36.25 36.25C36.25 37.0235 35.9427 37.7654 35.3957 38.3124C34.8487 38.8594 34.1069 39.1667 33.3333 39.1667C32.5598 39.1667 31.8179 38.8594 31.2709 38.3124C30.724 37.7654 30.4167 37.0235 30.4167 36.25C30.4167 34.6312 31.7146 33.3333 33.3333 33.3333ZM10 10H14.7687L16.1396 12.9167H37.7083C38.0951 12.9167 38.466 13.0703 38.7395 13.3438C39.013 13.6173 39.1667 13.9882 39.1667 14.375C39.1667 14.6229 39.0937 14.8708 38.9917 15.1042L33.7708 24.5396C33.275 25.4292 32.3125 26.0417 31.2188 26.0417H20.3542L19.0417 28.4187L18.9979 28.5937C18.9979 28.6904 19.0363 28.7832 19.1047 28.8515C19.1731 28.9199 19.2658 28.9583 19.3625 28.9583H36.25V31.875H18.75C17.9765 31.875 17.2346 31.5677 16.6876 31.0207C16.1406 30.4737 15.8333 29.7319 15.8333 28.9583C15.8333 28.4479 15.9646 27.9667 16.1833 27.5583L18.1667 23.9854L12.9167 12.9167H10V10ZM18.75 33.3333C19.5235 33.3333 20.2654 33.6406 20.8124 34.1876C21.3594 34.7346 21.6667 35.4764 21.6667 36.25C21.6667 37.0235 21.3594 37.7654 20.8124 38.3124C20.2654 38.8594 19.5235 39.1667 18.75 39.1667C17.9765 39.1667 17.2346 38.8594 16.6876 38.3124C16.1406 37.7654 15.8333 37.0235 15.8333 36.25C15.8333 34.6312 17.1312 33.3333 18.75 33.3333ZM31.875 23.125L35.9292 15.8333H17.4958L20.9375 23.125H31.875Z" fill="#979797"/>
</svg>
