<svg width="33" height="33" viewBox="0 0 33 33" fill="none" xmlns="http://www.w3.org/2000/svg">
<path d="M13.1666 14.2372C13.2983 13.7103 13.7097 13.2988 14.2366 13.1671L19.3218 11.8958C20.3987 11.6266 21.3743 12.6022 21.105 13.6792L19.8338 18.7642C19.7021 19.2911 19.2906 19.7026 18.7638 19.8342L13.6787 21.1056C12.6017 21.3748 11.6261 20.3992 11.8953 19.3222L13.1666 14.2372Z" stroke="#979797" stroke-width="6.36154" stroke-linecap="round" stroke-linejoin="round"/>
<path d="M16.5 4C6.94118 4 4 6.94118 4 16.5C4 26.0588 6.94118 29 16.5 29C26.0588 29 29 26.0588 29 16.5C29 6.94118 26.0588 4 16.5 4Z" stroke="#979797" stroke-width="6.36154" stroke-linecap="round" stroke-linejoin="round"/>
</svg>
