<svg width="33" height="33" viewBox="0 0 31 30" fill="none" xmlns="http://www.w3.org/2000/svg">
<path d="M29.2411 13.9024H27.1779C26.9083 11.136 25.6706 8.54817 23.6774 6.58296C21.6841 4.61774 19.0593 3.39757 16.2533 3.13171V1.09756C16.2533 0.80647 16.136 0.527301 15.9272 0.321468C15.7185 0.115636 15.4353 0 15.1401 0C14.8448 0 14.5617 0.115636 14.3529 0.321468C14.1441 0.527301 14.0268 0.80647 14.0268 1.09756V3.13171C11.2331 3.41086 8.62421 4.63722 6.64541 6.6015C4.6666 8.56578 3.44053 11.1462 3.17645 13.9024H1.11324C0.967048 13.9024 0.822286 13.9308 0.687222 13.986C0.552157 14.0411 0.429435 14.122 0.326061 14.2239C0.222687 14.3258 0.140686 14.4468 0.0847403 14.58C0.0287947 14.7131 0 14.8559 0 15C0 15.1441 0.0287947 15.2869 0.0847403 15.42C0.140686 15.5532 0.222687 15.6742 0.326061 15.7761C0.429435 15.878 0.552157 15.9589 0.687222 16.014C0.822286 16.0692 0.967048 16.0976 1.11324 16.0976H3.17645C3.4461 18.864 4.68371 21.4518 6.677 23.417C8.67029 25.3823 11.295 26.6024 14.101 26.8683V28.9024C14.101 29.1935 14.2183 29.4727 14.4271 29.6785C14.6359 29.8844 14.919 30 15.2143 30C15.5095 30 15.7927 29.8844 16.0015 29.6785C16.2102 29.4727 16.3275 29.1935 16.3275 28.9024V26.8683C19.1325 26.5997 21.7557 25.3787 23.7485 23.414C25.7412 21.4493 26.9797 18.863 27.2521 16.0976H29.3153C29.4615 16.0976 29.6063 16.0692 29.7413 16.014C29.8764 15.9589 29.9991 15.878 30.1025 15.7761C30.2059 15.6742 30.2879 15.5532 30.3438 15.42C30.3998 15.2869 30.4286 15.1441 30.4286 15C30.4286 14.8559 30.3998 14.7131 30.3438 14.58C30.2879 14.4468 30.2059 14.3258 30.1025 14.2239C29.9991 14.122 29.8764 14.0411 29.7413 13.986C29.6063 13.9308 29.4615 13.9024 29.3153 13.9024H29.2411ZM15.1401 24.7171C13.1908 24.7171 11.2852 24.1472 9.66443 23.0795C8.04364 22.0117 6.78038 20.4941 6.03442 18.7186C5.28845 16.943 5.09327 14.9892 5.47356 13.1043C5.85385 11.2194 6.79253 9.48795 8.1709 8.12899C9.54927 6.77003 11.3054 5.84457 13.2173 5.46964C15.1291 5.0947 17.1108 5.28713 18.9118 6.0226C20.7127 6.75806 22.252 8.00352 23.3349 9.60148C24.4179 11.1994 24.996 13.0781 24.996 15C24.996 17.5785 23.958 20.0516 22.1101 21.8762C20.2622 23.7008 17.7554 24.7278 15.1401 24.7317V24.7171Z" fill="#979797"/>
<path d="M22.821 14.75C22.821 16.2835 22.3596 17.7826 21.495 19.0575C20.6305 20.3323 19.4018 21.3256 17.9645 21.9117C16.5271 22.4978 14.9457 22.6502 13.4204 22.3498C11.8951 22.0494 10.4945 21.3096 9.39584 20.224C8.29719 19.1385 7.5499 17.7559 7.24855 16.2515C6.9472 14.747 7.10534 13.1882 7.70295 11.7724C8.30057 10.3565 9.31079 9.14735 10.6058 8.29782C11.9007 7.4483 13.4222 6.99664 14.9776 7.00002C16.0091 7.00002 17.0304 7.2006 17.9832 7.59028C18.9359 7.97996 19.8013 8.55109 20.5299 9.27097C21.2584 9.99085 21.8358 10.8453 22.229 11.7855C22.6221 12.7257 22.8233 13.7331 22.821 14.75Z" fill="#979797"/>
</svg>
