<svg width="33" height="33" viewBox="0 0 30 30" fill="none" xmlns="http://www.w3.org/2000/svg">
<path d="M25.2231 24.7998H30.0002V29.7998H25.2231V24.7998Z" fill="#A7A7A7"/>
<path d="M16.7197 25H21.4968V30H16.7197V25Z" fill="#A7A7A7"/>
<path d="M16.7197 16.25H21.4968V21.25H16.7197V16.25Z" fill="#A7A7A7"/>
<path d="M25.0796 16.25H29.8567V21.25H25.0796V16.25Z" fill="#A7A7A7"/>
<path d="M29.8567 8.75H22.6911V3.75C22.6911 1.625 21.1385 0 19.1083 0H11.9427C9.91242 0 8.35987 1.625 8.35987 3.75V8.75H1.19427C0.477707 8.75 0 9.25 0 10V10.25L2.26911 25.375C2.38854 26.625 3.46338 27.5 4.65764 27.5H14.3312V25H4.65764L2.62739 11.25H29.8567V8.75ZM10.7484 3.75C10.7484 3 11.2261 2.5 11.9427 2.5H19.1083C19.8248 2.5 20.3025 3 20.3025 3.75V8.75H10.7484V3.75Z" fill="#A7A7A7"/>
</svg>
