<?xml version="1.0" standalone="no"?>
<!DOCTYPE svg PUBLIC "-//W3C//DTD SVG 20010904//EN"
 "http://www.w3.org/TR/2001/REC-SVG-20010904/DTD/svg10.dtd">
<svg version="1.0" xmlns="http://www.w3.org/2000/svg"
 width="512" height="512" viewBox="0 0 512 512"
 preserveAspectRatio="xMidYMid meet">
<metadata>
Banwee - African Organic Products
</metadata>
<g fill="#000000" stroke="none">
<!-- Circular background representing wholeness and organic nature -->
<circle cx="256" cy="256" r="200"/>
<!-- Letter B in white (will be cut out) -->
<g fill="#ffffff">
<path d="M180 360 L180 152 L240 152 C265 152 285 158 300 170 C315 182 322 198 322 218 C322 232 318 244 310 254 C318 264 325 278 325 296 C325 316 318 332 304 344 C290 356 270 362 245 362 L180 360 Z M210 335 L240 335 C252 335 260 332 266 326 C272 320 275 312 275 302 C275 292 272 284 266 278 C260 272 252 269 240 269 L210 269 L210 335 Z M210 242 L235 242 C245 242 252 240 257 236 C262 232 264 226 264 218 C264 210 262 204 257 200 C252 196 245 194 235 194 L210 194 L210 242 Z"/>
</g>
<!-- Organic leaf elements around the circle -->
<path d="M120 180 C135 165 155 157 175 157 C200 157 220 167 232 185 C244 203 244 225 232 243 C220 261 200 271 175 271 C155 271 135 263 120 248 C123 240 126 232 129 224 C132 216 135 208 138 200 C135 192 132 184 129 176 C126 172 123 169 120 180 Z"/>
<path d="M392 180 C377 165 357 157 337 157 C312 157 292 167 280 185 C268 203 268 225 280 243 C292 261 312 271 337 271 C357 271 377 263 392 248 C389 240 386 232 383 224 C380 216 377 208 374 200 C377 192 380 184 383 176 C386 172 389 169 392 180 Z"/>
</g>
</svg>