<svg width="15" height="15" viewBox="0 0 15 15" fill="none" xmlns="http://www.w3.org/2000/svg">
<path d="M7.9375 1.75C7.6875 1.5 7.3125 1.5 7.0625 1.75L3.3125 5.5C3.0625 5.75 3.0625 6.125 3.3125 6.375C3.4375 6.5 3.59375 6.5625 3.75 6.5625C3.90625 6.5625 4.0625 6.5 4.1875 6.375L7.9375 2.625C8.1875 2.375 8.1875 2 7.9375 1.75Z" fill="#2E7D32"/>
<path d="M11.6875 5.5L7.9375 1.75C7.6875 1.5 7.3125 1.5 7.0625 1.75C6.8125 2 6.8125 2.375 7.0625 2.625L10.8125 6.375C10.9375 6.5 11.0938 6.5625 11.25 6.5625C11.4063 6.5625 11.5625 6.5 11.6875 6.375C11.9375 6.125 11.9375 5.75 11.6875 5.5Z" fill="#1B5E20"/>
<path d="M11.6875 12.8125H3.3125C3 12.8125 2.75 12.5938 2.6875 12.3125L1.5625 6.5625H13.4375L12.2812 12.3125C12.2188 12.5938 11.9688 12.8125 11.6875 12.8125Z" fill="#388E3C"/>
<path d="M13.4375 7.1875H1.5625C1.21875 7.1875 0.9375 6.90625 0.9375 6.5625V5.9375C0.9375 5.59375 1.21875 5.3125 1.5625 5.3125H13.4375C13.7812 5.3125 14.0625 5.59375 14.0625 5.9375V6.5625C14.0625 6.90625 13.7812 7.1875 13.4375 7.1875Z" fill="#4CAF50"/>
<path d="M9.625 7.75L7.15625 10.2188L6 9.03125L5.3125 9.71875L7.15625 11.5625L10.3125 8.40625L9.625 7.75Z" fill="#DCEDC8"/>
</svg>
