<svg width="100" height="100" viewBox="0 0 100 100" fill="none" xmlns="http://www.w3.org/2000/svg">
<path d="M26.6667 40H33.3333V33.3333H26.6667V40ZM66.6667 40H73.3333V33.3333H66.6667V40ZM67.3333 58C58.6667 69.5553 41.3333 69.5553 32.6667 58L27.3333 62C38.6667 77.1113 61.3333 77.1113 72.6667 62L67.3333 58ZM6.66667 33.3333V16.6667H0V33.3333H6.66667ZM16.6667 6.66667H33.3333V0H16.6667V6.66667ZM6.66667 16.6667C6.66667 11.1438 11.1438 6.66667 16.6667 6.66667V0C7.46193 0 0 7.46193 0 16.6667H6.66667ZM0 66.6667V83.3333H6.66667V66.6667H0ZM16.6667 100H33.3333V93.3333H16.6667V100ZM0 83.3333C0 92.538 7.46193 100 16.6667 100V93.3333C11.1438 93.3333 6.66667 88.856 6.66667 83.3333H0ZM66.6667 6.66667H83.3333V0H66.6667V6.66667ZM93.3333 16.6667V33.3333H100V16.6667H93.3333ZM83.3333 6.66667C88.856 6.66667 93.3333 11.1438 93.3333 16.6667H100C100 7.46193 92.538 0 83.3333 0V6.66667ZM66.6667 100H83.3333V93.3333H66.6667V100ZM100 83.3333V66.6667H93.3333V83.3333H100ZM83.3333 100C92.538 100 100 92.538 100 83.3333H93.3333C93.3333 88.856 88.856 93.3333 83.3333 93.3333V100Z" fill="#007BE5"/>
</svg>
